HIERARCHY
ROOT Hips
{
	OFFSET 0.000000 0.000000 0.000000
	CHANNELS 6 Xposition Yposition Zposition Xrotation Yrotation Zrotation
	JOINT LeftUpLeg_virtual
	{
		OFFSET 0.000000 0.000000 0.000000
		CHANNELS 3 Xrotation Yrotation Zrotation
		JOINT LeftUpLeg
		{
			OFFSET 10.205400 -3.823500 0.155100
			CHANNELS 3 Xrotation Yrotation Zrotation
			JOINT LeftLeg
			{
				OFFSET 0.708757 -12.982077 0.567790
				CHANNELS 3 Xrotation Yrotation Zrotation
				JOINT LeftFoot
				{
					OFFSET -0.708756 -10.717838 -2.184338
					CHANNELS 3 Xrotation Yrotation Zrotation
					JOINT LeftToeBase
					{
						OFFSET 0.108149 -7.191104 7.560241
						CHANNELS 3 Xrotation Yrotation Zrotation
						JOINT LeftToe_End
						{
							OFFSET 0.070230 0.081724 4.490308
							CHANNELS 3 Xrotation Yrotation Zrotation
							End Site
							{
								OFFSET 0 0 0
							}
						}
					}
				}
			}
		}
	}
	JOINT RightUpLeg_virtual
	{
		OFFSET 0.000000 0.000000 0.000000
		CHANNELS 3 Xrotation Yrotation Zrotation
		JOINT RightUpLeg
		{
			OFFSET -10.205400 -3.823500 0.005500
			CHANNELS 3 Xrotation Yrotation Zrotation
			JOINT RightLeg
			{
				OFFSET -0.708756 -12.982134 0.610632
				CHANNELS 3 Xrotation Yrotation Zrotation
				JOINT RightFoot
				{
					OFFSET 0.708754 -10.717769 -1.945823
					CHANNELS 3 Xrotation Yrotation Zrotation
					JOINT RightToeBase
					{
						OFFSET -0.108140 -7.191069 7.372968
						CHANNELS 3 Xrotation Yrotation Zrotation
						JOINT RightToe_End
						{
							OFFSET -0.070227 0.081735 4.479403
							CHANNELS 3 Xrotation Yrotation Zrotation
							End Site
							{
								OFFSET 0 0 0
							}
						}
					}
				}
			}
		}
	}
	JOINT Spine_virtual
	{
		OFFSET 0.000000 0.000000 0.000000
		CHANNELS 3 Xrotation Yrotation Zrotation
		JOINT Spine
		{
			OFFSET 0.000000 6.876099 0.125700
			CHANNELS 3 Xrotation Yrotation Zrotation
			JOINT Spine1
			{
				OFFSET 0.000000 5.730043 0.104720
				CHANNELS 3 Xrotation Yrotation Zrotation
				JOINT Spine1_split
				{
					OFFSET 0.000000 5.730043 0.104720
					CHANNELS 3 Xrotation Yrotation Zrotation
					JOINT Spine2
					{
						OFFSET 0.000000 5.730043 0.104720
						CHANNELS 3 Xrotation Yrotation Zrotation
						JOINT Neck_virtual
						{
							OFFSET 0.000000 0.000000 0.000000
							CHANNELS 3 Xrotation Yrotation Zrotation
							JOINT Neck
							{
								OFFSET 0.000000 10.314075 0.188496
								CHANNELS 3 Xrotation Yrotation Zrotation
								JOINT Head
								{
									OFFSET 0.000000 7.643700 -2.377400
									CHANNELS 3 Xrotation Yrotation Zrotation
									JOINT HeadTop_End
									{
										OFFSET 0.000000 43.788605 -13.619600
										CHANNELS 3 Xrotation Yrotation Zrotation
										End Site
										{
											OFFSET 0 0 0
										}
									}
								}
							}
						}
						JOINT LeftShoulder_virtual
						{
							OFFSET 0.000000 0.000000 0.000000
							CHANNELS 3 Xrotation Yrotation Zrotation
							JOINT LeftShoulder
							{
								OFFSET 2.196100 4.412489 0.087492
								CHANNELS 3 Xrotation Yrotation Zrotation
								JOINT LeftShoulder_split
								{
									OFFSET 2.196100 4.412489 0.087492
									CHANNELS 3 Xrotation Yrotation Zrotation
									JOINT LeftArm
									{
										OFFSET 8.771219 -2.981674 -0.026999
										CHANNELS 3 Xrotation Yrotation Zrotation
										JOINT LeftForeArm
										{
											OFFSET 8.512804 0.000000 -0.000000
											CHANNELS 3 Xrotation Yrotation Zrotation
											JOINT LeftHand
											{
												OFFSET 18.484802 0.000000 -0.000000
												CHANNELS 3 Xrotation Yrotation Zrotation
												End Site
												{
													OFFSET 0 0 0
												}
											}
										}
									}
								}
							}
						}
						JOINT RightShoulder_virtual
						{
							OFFSET 0.000000 0.000000 0.000000
							CHANNELS 3 Xrotation Yrotation Zrotation
							JOINT RightShoulder
							{
								OFFSET -2.196100 4.412496 0.070690
								CHANNELS 3 Xrotation Yrotation Zrotation
								JOINT RightShoulder_split
								{
									OFFSET -2.196100 4.412496 0.070690
									CHANNELS 3 Xrotation Yrotation Zrotation
									JOINT RightArm
									{
										OFFSET -8.771282 -2.981682 -0.094208
										CHANNELS 3 Xrotation Yrotation Zrotation
										JOINT RightForeArm
										{
											OFFSET -8.494598 0.000000 0.000000
											CHANNELS 3 Xrotation Yrotation Zrotation
											JOINT RightHand
											{
												OFFSET -18.483803 0.000000 0.000001
												CHANNELS 3 Xrotation Yrotation Zrotation
												End Site
												{
													OFFSET 0 0 0
												}
											}
										}
									}
								}
							}
						}
					}
				}
			}
		}
	}
}
MOTION
Frames: 11
Frame Time: 0.03333333
-2.645097 29.803991 6.357609 0.000000 0.000000 0.000000 -3.950186 -26.087575 -1.446294 -32.245081 -5.745051 5.751574 38.853145 -3.360496 3.809440 -14.731603 -6.461724 -6.273713 -0.551668 0.409643 2.619829 0.000000 0.000000 0.000000 -7.940185 -21.107926 -0.837335 -6.831559 -7.741572 3.711571 42.440019 7.712061 -3.052212 -30.789735 0.344209 0.257797 -1.786434 2.442044 3.924219 0.000000 0.000000 0.000000 -5.970423 -38.625399 -1.935000 13.659471 8.249211 3.603529 -3.456987 18.971521 1.137462 -0.730209 5.223181 0.799852 0.000000 0.000000 0.000000 13.643573 21.578612 -5.018138 -2.484056 15.154192 3.495396 6.019069 49.606100 -4.739082 0.000000 0.000000 0.000000 12.818752 22.405187 -4.332445 7.429162 -9.602682 -4.786905 4.334801 -9.337186 -3.279365 -33.356448 4.420828 -54.882967 -83.031051 12.844651 -85.556357 0.000000 0.000000 0.000000 16.297975 22.113880 -5.727818 5.260453 20.679328 -9.388729 -11.265448 -1.256654 -10.251617 -0.025492 35.874913 50.045315 -123.402134 70.118176 114.169228 0.000000 0.000000 0.000000 
-3.125722 29.891655 5.947665 0.000000 0.000000 0.000000 -4.528155 -23.675165 -0.799873 -30.535102 -3.270495 6.188129 34.301388 -2.594984 3.463517 -15.528526 -6.532763 -8.188345 -0.063582 0.800122 2.880729 0.000000 0.000000 0.000000 -8.439499 -18.414783 -0.177775 -5.505833 -7.415343 2.824920 40.576856 7.023081 -1.315319 -30.657769 0.954127 -0.730902 -0.655379 2.910480 3.948768 0.000000 0.000000 0.000000 -7.193128 -35.489933 -1.742555 14.886717 7.991319 3.732166 -3.737356 19.184599 0.773932 -0.401610 4.803669 1.028881 0.000000 0.000000 0.000000 13.929908 21.488439 -5.352061 -4.799311 15.117994 3.104369 6.249729 48.799864 -4.930320 0.000000 0.000000 0.000000 12.504280 22.501247 -4.584489 7.553462 -9.211442 -4.747890 5.958145 -10.092552 -3.335415 -35.139452 5.509124 -54.790784 -84.459899 12.762694 -86.056142 0.000000 0.000000 0.000000 15.570253 21.901628 -6.044612 4.905436 21.075978 -8.691176 -11.683119 -1.031367 -10.664459 0.671719 36.692698 47.754272 -123.673621 69.138412 114.464893 0.000000 0.000000 0.000000 
-3.489035 30.007084 5.710132 0.000000 0.000000 0.000000 -5.084490 -21.285525 -0.351243 -29.195835 0.508664 7.534073 30.704149 -1.371563 3.055242 -15.994329 -6.090808 -9.871327 0.105954 1.293540 3.067195 0.000000 0.000000 0.000000 -8.639551 -15.930928 0.380217 -4.466218 -6.960049 1.422476 39.240318 5.979421 0.312781 -30.299672 1.120606 -1.721950 0.488799 3.195750 3.725803 0.000000 0.000000 0.000000 -8.022932 -32.556360 -1.572214 16.045496 7.692486 3.698100 -4.072412 19.131483 0.441159 -0.204304 4.272072 1.116955 0.000000 0.000000 0.000000 13.985243 21.238982 -5.538532 -7.517684 15.010147 3.311639 6.907570 47.819404 -5.317945 0.000000 0.000000 0.000000 12.170352 22.300846 -4.829649 7.921297 -9.376656 -3.816821 7.427698 -10.455545 -3.706065 -36.539149 4.911995 -54.226105 -85.438775 12.669904 -85.357058 0.000000 0.000000 0.000000 14.647832 21.496839 -6.157124 4.423067 21.323617 -7.628929 -10.594353 -0.007329 -11.485617 1.426832 37.894631 45.154756 -124.663493 68.716853 115.490262 0.000000 0.000000 0.000000 
-3.634995 30.156065 5.640054 0.000000 0.000000 0.000000 -5.456838 -18.738798 -0.216897 -28.610288 4.853114 9.840884 29.260189 0.152523 2.665497 -15.979690 -5.341172 -11.275143 -0.427175 1.884793 3.173012 0.000000 0.000000 0.000000 -8.534709 -13.372139 0.726155 -3.711846 -6.506533 0.051534 38.379980 4.590168 1.615464 -29.869155 0.834300 -2.688685 1.197748 3.272692 3.389764 0.000000 0.000000 0.000000 -8.175966 -29.579565 -1.395803 16.817801 7.478159 3.494661 -4.459747 18.906846 0.291213 -0.242363 3.704692 1.007312 0.000000 0.000000 0.000000 13.822411 20.945345 -5.488095 -10.117171 14.558391 4.216334 7.254057 46.560751 -5.652960 0.000000 0.000000 0.000000 11.577639 21.941983 -4.848243 8.431192 -10.005972 -2.054393 8.662741 -10.879225 -4.136348 -37.658163 3.433326 -53.185758 -86.320067 12.583888 -83.915697 0.000000 0.000000 0.000000 13.556562 21.029843 -5.938493 3.797733 21.270047 -6.422076 -8.405974 1.603526 -12.612278 2.316037 38.988489 42.111671 -128.039478 68.821710 118.773288 0.000000 0.000000 0.000000 
-3.614253 30.381163 5.691915 0.000000 0.000000 0.000000 -5.420172 -15.635100 -0.445575 -29.116581 8.956309 13.122734 30.601423 1.935874 2.157795 -15.798549 -4.495512 -12.487765 -1.265632 2.568167 3.121391 0.000000 0.000000 0.000000 -8.288355 -10.644836 0.742389 -3.539687 -6.214853 -1.120952 37.665635 3.067488 2.416121 -29.417287 0.221184 -3.258406 0.937824 3.163776 3.031905 0.000000 0.000000 0.000000 -7.623513 -26.468735 -1.254560 16.890595 7.381996 3.151454 -4.934384 18.458188 0.424200 -0.484231 3.043343 0.651782 0.000000 0.000000 0.000000 13.456084 20.573896 -5.140436 -11.881511 13.721006 5.392220 6.887438 44.994762 -5.885250 0.000000 0.000000 0.000000 10.710803 21.467107 -4.517630 8.962332 -10.816014 0.262648 9.709893 -11.895613 -4.372883 -38.399163 2.263434 -51.758180 -87.932552 12.350047 -82.621697 0.000000 0.000000 0.000000 12.412464 20.512568 -5.295470 3.137040 20.675328 -5.399682 -6.116682 2.736564 -13.796272 2.797126 39.233358 39.100862 -135.214837 68.965595 125.624732 0.000000 0.000000 0.000000 
-3.495317 30.676149 5.760209 0.000000 0.000000 0.000000 -5.134571 -11.781602 -0.987364 -30.470471 12.185866 17.342918 34.489679 3.647762 1.468097 -15.291441 -3.684204 -14.158275 -2.015632 3.352367 2.923407 0.000000 0.000000 0.000000 -8.182102 -7.629652 0.481386 -4.119448 -6.286727 -2.101955 37.234052 1.586157 2.678734 -29.017973 -0.570066 -3.208367 -0.120364 2.907754 2.762726 0.000000 0.000000 0.000000 -6.682731 -22.841372 -1.200698 16.046556 7.451250 2.737650 -5.364690 17.685938 0.822087 -1.061567 2.719080 0.395959 0.000000 0.000000 0.000000 12.987345 20.014737 -4.514644 -12.349489 12.850652 6.389871 5.769774 43.613531 -6.429843 0.000000 0.000000 0.000000 9.605627 20.807493 -3.816944 9.392378 -11.501381 2.686249 10.489494 -12.941250 -4.417214 -39.100005 2.408771 -50.214465 -90.499242 11.996497 -81.818085 0.000000 0.000000 0.000000 11.343036 19.830985 -4.311398 2.658842 19.594001 -5.012978 -4.508455 2.606940 -14.412413 2.630693 38.126662 36.709586 -145.508697 68.446384 135.345977 0.000000 0.000000 0.000000 
-3.388653 30.984402 5.651486 0.000000 0.000000 0.000000 -4.726764 -7.207528 -1.652401 -32.185764 14.384208 22.127245 39.836126 5.040512 0.444024 -14.427625 -2.924741 -16.727827 -2.565242 4.160245 2.847671 0.000000 0.000000 0.000000 -8.263031 -4.105112 0.131901 -5.382602 -6.699353 -3.092266 37.237092 0.169395 2.459576 -28.824228 -1.360541 -2.688036 -0.713103 2.571988 2.645392 0.000000 0.000000 0.000000 -5.512682 -18.665505 -1.211627 14.337260 7.678955 2.368430 -5.513382 16.477234 1.386082 -1.332604 2.487281 0.041379 0.000000 0.000000 0.000000 12.526915 19.039021 -3.690607 -11.568400 12.123418 6.720609 4.444615 42.634095 -7.708083 0.000000 0.000000 0.000000 8.529173 19.752871 -2.920669 9.715787 -11.908781 4.659564 11.076262 -13.418777 -4.242805 -39.727327 4.039632 -49.056099 -93.600673 11.570338 -81.364710 0.000000 0.000000 0.000000 10.462677 18.811722 -3.133803 2.377807 18.255084 -5.437105 -3.922246 1.495730 -14.265951 1.073791 35.679617 35.625908 -155.715855 66.974649 144.793891 0.000000 0.000000 0.000000 
-3.326659 31.277695 5.236857 0.000000 0.000000 0.000000 -4.226220 -2.008165 -2.062317 -33.735127 15.657522 27.007651 44.866290 6.302230 -0.964291 -13.004421 -2.233873 -20.047167 -2.748473 4.898056 3.010498 0.000000 0.000000 0.000000 -8.395277 0.277336 0.008750 -7.044181 -7.321797 -4.695788 37.619217 -1.088586 1.832017 -28.716950 -2.084311 -1.767205 -0.128961 2.198061 2.700794 0.000000 0.000000 0.000000 -4.427056 -14.228701 -1.119777 11.975132 7.954606 2.163285 -5.232732 14.693369 1.942974 -1.056748 2.495880 -0.225104 0.000000 0.000000 0.000000 12.089557 17.453690 -2.834657 -9.759109 11.750748 6.027192 3.400174 41.738326 -9.627082 0.000000 0.000000 0.000000 7.992615 18.135897 -2.154843 9.945100 -11.785367 5.680300 11.672071 -13.454107 -3.641313 -39.825392 6.204909 -48.931533 -96.155430 11.155712 -80.407944 0.000000 0.000000 0.000000 10.057133 17.330374 -2.052686 2.348108 16.973681 -6.772441 -3.778308 0.038454 -13.257403 -1.821578 32.194445 36.212755 -162.788625 65.286664 151.067091 0.000000 0.000000 0.000000 
-3.323704 31.531092 4.597187 0.000000 0.000000 0.000000 -4.017473 3.346500 -1.866913 -34.538740 16.278670 31.594512 47.943939 7.435048 -2.670963 -10.505897 -1.762248 -24.108493 -2.609872 5.504864 3.445229 0.000000 0.000000 0.000000 -8.465801 5.522602 0.402882 -8.683336 -7.902175 -7.238151 38.269929 -2.006739 0.970944 -28.177734 -2.816362 -0.194019 1.331390 1.789317 2.965557 0.000000 0.000000 0.000000 -3.856416 -9.771942 -0.860394 9.280928 8.132426 2.048658 -4.430219 12.452063 2.245089 -0.475634 2.952552 -0.195858 0.000000 0.000000 0.000000 11.843347 15.298220 -2.177496 -7.209631 11.652608 4.238903 3.078196 40.944532 -11.999173 0.000000 0.000000 0.000000 8.233249 16.016652 -1.750330 10.100568 -11.044794 5.690708 11.953875 -13.147642 -3.040556 -39.544470 7.308985 -50.081942 -97.145241 11.073029 -78.134748 0.000000 0.000000 0.000000 10.253030 15.346902 -1.353195 2.567080 15.954670 -8.908516 -3.819403 -1.064947 -11.476116 -5.092879 28.423451 37.902256 -166.000904 64.264867 153.578443 0.000000 0.000000 0.000000 
-3.262563 31.765446 3.846973 0.000000 0.000000 0.000000 -4.040994 8.689022 -0.953185 -34.406791 16.627850 35.469183 48.400985 8.643466 -4.498870 -7.376469 -1.604733 -28.208128 -2.045333 5.944442 4.031173 0.000000 0.000000 0.000000 -8.420692 10.945764 1.308903 -9.854519 -8.277586 -10.562195 38.940517 -2.310037 -0.024729 -26.586359 -3.592820 2.237330 2.776462 1.396166 3.422053 0.000000 0.000000 0.000000 -3.977506 -5.650526 -0.339086 6.590895 8.064244 1.903487 -3.274051 9.906001 2.152126 0.233769 3.476038 0.213578 0.000000 0.000000 0.000000 11.923123 12.792155 -1.886524 -4.303292 11.515336 1.655846 3.718815 40.102441 -14.370414 0.000000 0.000000 0.000000 9.310395 13.586082 -1.781907 10.190838 -9.657992 5.128424 11.767810 -12.785799 -3.110041 -39.471052 6.032382 -52.027088 -96.705022 11.324892 -74.945671 0.000000 0.000000 0.000000 11.088575 13.005418 -1.171761 2.970176 15.290816 -11.699169 -3.944261 -1.833524 -9.410717 -7.907091 25.082965 39.913078 -165.803088 64.216742 152.817573 0.000000 0.000000 0.000000 
-2.970916 31.968182 3.013700 0.000000 0.000000 0.000000 -4.275944 13.318413 0.518702 -33.091969 16.879771 38.197973 46.165368 10.168270 -6.081620 -4.464500 -1.479754 -31.391546 -0.834476 6.264530 4.394031 0.000000 0.000000 0.000000 -8.277193 16.013194 2.589959 -10.173473 -8.430689 -14.111278 39.158239 -2.085445 -1.069634 -24.104397 -4.304306 5.135801 3.476916 1.078990 3.945209 0.000000 0.000000 0.000000 -4.753999 -2.137370 0.418539 4.146514 7.676596 1.626941 -1.962511 7.297337 1.699888 0.596198 4.092305 0.678450 0.000000 0.000000 0.000000 12.345727 10.276261 -1.980726 -1.426504 11.297565 -1.203853 4.559502 39.128849 -16.188711 0.000000 0.000000 0.000000 10.997174 11.166364 -2.107493 10.241879 -7.690900 4.537811 11.356693 -12.834097 -3.646247 -40.113404 2.359517 -54.139809 -95.494097 11.739614 -71.566305 0.000000 0.000000 0.000000 12.479695 10.575635 -1.509176 3.522254 14.997504 -14.840656 -4.160413 -2.645427 -7.304583 -9.740656 22.731954 41.524975 -162.939709 64.750064 149.549027 0.000000 0.000000 0.000000 
